<?xml version="1.0" encoding="UTF-8" standalone="no"?>
<svg
   xmlns:dc="http://purl.org/dc/elements/1.1/"
   xmlns:cc="http://creativecommons.org/ns#"
   xmlns:rdf="http://www.w3.org/1999/02/22-rdf-syntax-ns#"
   xmlns:svg="http://www.w3.org/2000/svg"
   xmlns="http://www.w3.org/2000/svg"
   xmlns:sodipodi="http://sodipodi.sourceforge.net/DTD/sodipodi-0.dtd"
   xmlns:inkscape="http://www.inkscape.org/namespaces/inkscape"
   height="903.151"
   width="903.151"
   version="1.1"
   id="svg4"
   sodipodi:docname="logo.svg"
   inkscape:version="0.92.3 (2405546, 2018-03-11)"
   inkscape:export-filename="logo.png"
   inkscape:export-xdpi="106.29"
   inkscape:export-ydpi="106.29">
  <metadata
     id="metadata10">
    <rdf:RDF>
      <cc:Work
         rdf:about="">
        <dc:format>image/svg+xml</dc:format>
        <dc:type
           rdf:resource="http://purl.org/dc/dcmitype/StillImage" />
        <dc:title />
      </cc:Work>
    </rdf:RDF>
  </metadata>
  <defs
     id="defs8">
    <mask
       maskUnits="userSpaceOnUse"
       id="mask1255">
      <g
         id="g1261"
         transform="matrix(0.91428195,0,0,0.91428195,1420.7584,-1772.0457)">
        <rect
           style="color:#000000;display:inline;overflow:visible;visibility:visible;opacity:1;vector-effect:none;fill:#ffffff;fill-opacity:1;fill-rule:nonzero;stroke:none;stroke-width:5.24749517;stroke-linecap:round;stroke-linejoin:miter;stroke-miterlimit:4;stroke-dasharray:5.24749483, 5.24749483;stroke-dashoffset:0;stroke-opacity:1;marker:none;enable-background:accumulate"
           id="rect1257"
           width="1269.6405"
           height="1269.6405"
           x="-4.3288574"
           y="-2371.3933" />
        <path
           sodipodi:type="star"
           style="color:#000000;display:inline;overflow:visible;visibility:visible;opacity:1;vector-effect:none;fill:#000000;fill-opacity:1;fill-rule:nonzero;stroke:none;stroke-width:2.83218002;stroke-linecap:round;stroke-linejoin:miter;stroke-miterlimit:4;stroke-dasharray:2.83218009, 2.83218009;stroke-dashoffset:0;stroke-opacity:1;marker:none;enable-background:accumulate"
           id="path1259"
           sodipodi:sides="6"
           sodipodi:cx="797.71234"
           sodipodi:cy="931.9563"
           sodipodi:r1="706.27521"
           sodipodi:r2="352.1452"
           sodipodi:arg1="0.53832598"
           sodipodi:arg2="1.0619247"
           inkscape:flatsided="true"
           inkscape:rounded="0"
           inkscape:randomized="0"
           d="M 1404.0977,1294.0632 787.31126,1638.1549 180.92586,1276.048 191.32694,569.84939 808.11342,225.75768 1414.4988,587.86459 Z"
           transform="matrix(0.64512421,-0.00845442,0.00845442,0.64512421,107.9887,-2331.0564)" />
      </g>
    </mask>
  </defs>
  <sodipodi:namedview
     pagecolor="#ffffff"
     bordercolor="#666666"
     borderopacity="1"
     objecttolerance="10"
     gridtolerance="10"
     guidetolerance="10"
     inkscape:pageopacity="0"
     inkscape:pageshadow="2"
     inkscape:window-width="1920"
     inkscape:window-height="1001"
     id="namedview6"
     showgrid="false"
     showguides="true"
     inkscape:guide-bbox="true"
     fit-margin-top="0"
     fit-margin-left="0"
     fit-margin-right="0"
     fit-margin-bottom="0"
     inkscape:zoom="0.53462554"
     inkscape:cx="650.73493"
     inkscape:cy="439.28684"
     inkscape:window-x="-9"
     inkscape:window-y="41"
     inkscape:window-maximized="1"
     inkscape:current-layer="g1265" />
  <g
     id="g855"
     transform="translate(-340.35071,-468.46161)">
    <g
       id="g865"
       transform="matrix(0.54751236,0,0,0.54751236,358.33683,416.30543)">
      <g
         id="g1070"
         transform="matrix(1.4423229,0,0,1.4423229,-118.93936,3426.7306)">
        <g
           id="g1143"
           transform="translate(0,-1420.2825)" />
        <g
           id="g1235"
           transform="translate(-1366.7139,1623.1901)">
          <g
             id="g1265"
             transform="matrix(0.88528019,0,0,0.88528019,229.34522,-385.4798)">
            <g
               id="g28">
              <path
                 d="m 2379.6796,-3361.8106 c 0.8319,114.6022 -49.7701,228.1959 -149.3259,302.4669 -147.115,109.9169 -349.0649,98.0895 -482.7647,-18.1564 l 116.7826,-86.167 -371.0659,-104.9362 1.8479,376.7713 130.7925,-94.7423 c 186.3801,181.5637 482.6302,207.7086 696.8113,47.6752 124.172,-92.7667 193.7523,-229.0478 207.0472,-371.1662 z m -611.5924,-299.2658 c 147.0712,-109.923 348.9917,-98.1879 482.6795,18.1445 l -116.9484,86.1009 371.0585,104.9786 -1.7801,-376.9372 -130.7004,95.0185 c -186.4037,-181.6986 -482.5922,-207.6601 -696.8112,-47.6751 -124.1662,92.7225 -193.7025,229.0111 -207.0356,371.0809 l 150.1313,51.7013 c -0.8263,-114.645 49.8448,-228.0988 149.4064,-302.4124 z"
                 id="path2-7-0-7-4"
                 inkscape:connector-curvature="0"
                 style="fill:#c73036;stroke-width:1.38785613"
                 mask="url(#mask1255)"
                 transform="matrix(1.1080478,0,0,1.1080478,-216.00664,363.06053)" />
              <path
                 style="fill:#4d4d4d;fill-opacity:1;stroke-width:1.85282922"
                 d="m 1975.3271,-2884.5082 c -7.5017,-4.2837 -17.1966,-9.8729 -21.544,-12.4206 -4.3477,-2.5476 -15.2178,-8.801 -24.1561,-13.8962 -8.9383,-5.0953 -19.7774,-11.3485 -24.0868,-13.8962 -8.1741,-4.8324 -36.5315,-21.1328 -45.1265,-25.9397 -2.7332,-1.5285 -13.5283,-7.7819 -23.9889,-13.8962 -10.4606,-6.1144 -21.2997,-12.3676 -24.0868,-13.8962 -2.787,-1.5285 -13.6308,-7.7819 -24.0971,-13.8962 -10.4665,-6.1144 -27.1152,-15.7822 -36.9974,-21.484 -9.882,-5.7019 -28.8064,-16.619 -42.0541,-24.2604 -13.2477,-7.6411 -34.926,-20.1575 -48.1737,-27.8137 -13.2478,-7.6565 -35.7595,-20.5964 -50.0263,-28.7556 -17.5571,-10.0407 -27.2868,-16.8014 -30.1085,-20.9203 l -4.1688,-6.0856 v -239.2043 c 0,-228.5995 0.1573,-239.4505 3.4002,-244.7625 2.4609,-4.0312 14.551,-11.8926 43.9978,-28.6096 22.3324,-12.678 52.2773,-29.8943 66.5441,-38.2582 14.2667,-8.364 35.528,-20.5608 47.2471,-27.1041 11.7192,-6.5432 31.3127,-17.8022 43.5416,-25.02 12.2286,-7.2178 31.8222,-18.4857 43.5414,-25.0397 11.7192,-6.5539 29.6452,-16.776 39.8358,-22.7156 10.1905,-5.9396 27.2829,-15.7816 37.983,-21.8712 10.7,-6.0897 29.8768,-17.0832 42.6151,-24.4304 44.2787,-25.5388 43.2066,-25.0398 53.795,-25.0398 9.0658,0 12.3912,1.4834 44.2423,19.7356 18.942,10.8546 39.8595,22.8185 46.4833,26.5867 6.6239,3.7683 17.463,10.0078 24.0868,13.8658 6.6238,3.858 21.6317,12.4001 33.3509,18.9828 11.7192,6.5825 30.896,17.6246 42.6151,24.5379 11.7192,6.9133 39.2337,22.8067 61.1434,35.3186 21.9097,12.5119 44.8384,25.6494 50.9528,29.1942 6.1143,3.5448 20.7053,11.8226 32.4245,18.3953 11.7191,6.5724 23.392,13.2952 25.9395,14.9395 2.5477,1.6442 9.2179,5.4202 14.8227,8.3911 5.6047,2.971 11.4412,6.4392 12.9699,7.7074 1.5285,1.2681 8.1129,5.1068 14.6318,8.5306 20.7697,10.9082 18.7042,-17.3639 18.7121,256.1052 0,206.9061 -0.3571,239.348 -2.7308,243.938 -2.6139,5.0546 -6.3946,7.524 -61.1848,39.9617 -7.1336,4.2232 -18.8063,10.8736 -25.9396,14.7787 -7.1335,3.9051 -22.9752,13.0619 -35.2038,20.3484 -12.2287,7.2865 -33.9068,19.7822 -48.1736,27.7682 -14.2667,7.9859 -28.8578,16.3918 -32.4245,18.6795 -3.5666,2.2879 -12.3214,7.463 -19.4547,11.5006 -29.6824,16.8005 -55.229,31.5195 -79.6717,45.9037 -14.2667,8.3959 -37.6124,21.9241 -51.8792,30.0627 -14.2667,8.1385 -32.6098,18.6495 -40.7622,23.3573 -12.8169,7.4014 -16.2016,8.55 -25.0132,8.4877 -8.4985,-0.06 -12.4554,-1.3655 -23.83,-7.8609 z m -1.9331,-114.1725 c -0.015,-28.6779 -0.5252,-52.9511 -1.1365,-53.9402 -0.6114,-0.9891 -3.1471,-1.7985 -5.6351,-1.7985 -2.4878,0 -25.159,-2.9044 -50.3803,-6.4541 -25.2211,-3.5498 -61.2815,-8.6133 -80.134,-11.2524 -18.8526,-2.639 -48.7323,-6.8688 -66.3994,-9.3996 -17.667,-2.5311 -33.5087,-4.325 -35.2038,-3.987 -1.9622,0.3915 0.6203,2.6777 7.109,6.2933 5.6048,3.1233 15.1931,8.595 21.3076,12.1594 25.5051,14.8687 62.6863,36.4057 85.23,49.3689 13.2478,7.618 29.0894,16.7703 35.2038,20.3385 6.1143,3.5682 16.5365,9.5715 23.1604,13.3405 6.6238,3.7692 17.4627,10.0302 24.0866,13.9136 6.6239,3.8833 16.6293,9.5719 22.2341,12.6415 5.6048,3.0696 12.1938,7.1167 14.6422,8.9936 2.4485,1.8769 4.7866,3.0777 5.196,2.6685 0.4092,-0.4094 0.7329,-24.2079 0.7194,-52.886 z m 65.4434,45.5493 c 19.379,-11.8546 46.0218,-27.353 65.6783,-38.2058 9.542,-5.2685 27.4682,-15.656 39.8358,-23.0835 12.3676,-7.4274 34.1594,-20.0106 48.4262,-27.9626 14.2667,-7.952 28.8578,-16.3003 32.4245,-18.5517 3.5667,-2.2513 14.1954,-8.5849 23.6193,-14.0747 9.4239,-5.4896 16.3588,-10.2405 15.411,-10.5573 -0.948,-0.3166 -16.5793,1.5157 -34.7363,4.0723 -18.1571,2.5563 -54.6909,7.6382 -81.1863,11.2927 -26.4955,3.6545 -56.5114,7.8186 -66.7019,9.2537 -10.1906,1.4351 -25.6153,3.5408 -34.2774,4.6796 -8.662,1.1389 -17.6251,2.4535 -19.9179,2.9217 l -4.1688,0.8511 v 53.6968 c 0,29.5331 0.5553,53.6967 1.2341,53.6967 0.6787,0 7.1405,-3.613 14.3594,-8.029 z m -90.4218,-159.5896 c -5.1623,-7.8786 -23.3717,-39.8116 -23.3717,-40.9858 0,-0.6158 -1.5478,-3.3327 -3.4397,-6.0377 -1.8917,-2.7049 -9.2761,-15.3403 -16.4096,-28.0784 -17.7768,-31.744 -42.001,-74.4872 -63.5291,-112.0962 -9.9164,-17.3241 -24.1269,-42.3372 -31.5788,-55.585 -7.452,-13.2477 -16.5971,-29.5063 -20.3224,-36.1301 -3.7254,-6.6239 -12.4655,-22.0487 -19.4221,-34.2774 -6.9568,-12.2286 -14.9452,-26.3368 -17.752,-31.3517 l -5.1035,-9.1176 -3.0101,7.2046 c -1.6558,3.9625 -7.5033,20.1552 -12.9946,35.9837 -5.4912,15.8285 -14.2903,40.8688 -19.5536,55.6452 -5.2631,14.7763 -13.1869,37.2882 -17.608,50.0264 -7.1551,20.6145 -20.3491,58.054 -30.689,87.0829 -1.9963,5.6048 -7.0423,20.1959 -11.2132,32.4245 -4.1708,12.2287 -9.5816,27.5731 -12.0237,34.0988 -2.4421,6.5257 -4.2209,12.0662 -3.9528,12.3124 0.268,0.2459 13.4108,2.2235 29.2061,4.3947 15.7954,2.1711 33.7216,4.7331 39.8358,5.6936 6.1145,0.9604 21.1223,3.0494 33.3511,4.6422 12.2286,1.5928 27.6533,3.7189 34.2772,4.7248 6.6238,1.006 26.6345,3.8377 44.4679,6.2927 71.9145,9.9001 101.5073,14.0178 112.0962,15.5973 6.1143,0.912 13.5057,1.7591 16.4253,1.8821 5.2265,0.2202 5.2621,0.1532 2.3143,-4.346 z m 118.218,2.7769 c 11.4658,-1.8239 67.7146,-9.7072 119.6591,-16.77 70.814,-9.6286 174.9064,-24.3836 175.5263,-24.8809 0.2386,-0.1914 -2.9486,-9.8801 -7.0826,-21.5303 -13.0184,-36.6883 -18.5631,-52.4483 -21.1415,-60.0921 -1.3749,-4.0761 -7.2307,-20.7517 -13.0129,-37.0565 -10.1925,-28.7413 -12.3785,-34.9273 -24.8805,-70.4075 -3.2316,-9.1714 -7.0913,-20.4274 -8.5771,-25.0133 -1.4858,-4.5856 -4.7453,-13.7571 -7.2436,-20.381 -2.4982,-6.6238 -9.5791,-26.5213 -15.7356,-44.2163 -6.1563,-17.695 -11.6716,-32.9465 -12.2559,-33.8921 -0.8687,-1.4056 -22.3043,34.4743 -46.6641,78.1084 -21.1341,37.8558 -31.8474,56.7747 -39.3455,69.4811 -4.8108,8.1523 -15.2072,26.4955 -23.103,40.7623 -7.8957,14.2667 -19.9476,35.5279 -26.7817,47.247 -6.8342,11.7191 -17.7078,30.8959 -24.1637,42.6151 -6.456,11.7193 -15.2461,27.144 -19.5339,34.2773 -8.7202,14.5078 -23.114,40.9985 -23.114,42.5395 0,1.452 4.688,1.2396 17.4502,-0.7907 z m -51.3292,-46.4433 c 7.6557,-13.7228 21.6001,-38.291 30.9879,-54.5959 9.3878,-16.3049 25.2577,-44.2363 35.2666,-62.0699 10.0089,-17.8334 20.0282,-35.3426 22.265,-38.9094 2.2369,-3.5665 11.4215,-19.8252 20.4102,-36.1301 8.9887,-16.3048 19.8645,-35.4817 24.1684,-42.6151 4.3039,-7.1333 12.5905,-21.7244 18.4147,-32.4245 5.8241,-10.7001 18.4251,-32.8971 28.0022,-49.3266 9.5771,-16.4297 17.413,-30.3954 17.413,-31.0349 0,-0.6396 -95.884,-1.163 -213.0753,-1.163 -117.1915,0 -213.0753,0.335 -213.0753,0.7442 0,0.7059 16.353,29.6319 51.1202,90.4232 8.5699,14.9847 15.5816,27.7336 15.5816,28.3308 0,0.5971 1.5573,3.3449 3.461,6.106 3.0029,4.3561 22.3202,38.1241 34.6695,60.6052 8.6047,15.6643 64.178,113.5689 72.0426,126.9187 3.3018,5.6049 12.4946,21.6865 20.4284,35.7371 7.9339,14.0506 15.2295,25.2782 16.2125,24.9507 0.9832,-0.3277 8.0512,-11.8237 15.7068,-25.5465 z m -377.9959,-153.7223 c 4.4917,-12.7382 12.2356,-34.8332 17.2082,-49.1 4.9729,-14.2667 13.3248,-38.0293 18.5597,-52.8057 5.235,-14.7762 10.2214,-28.9503 11.0808,-31.498 6.5482,-19.4118 24.0382,-68.7995 24.8026,-70.0361 0.5218,-0.8443 -5.0495,-4.1461 -12.3806,-7.3372 -7.3312,-3.1911 -25.7732,-11.2671 -40.982,-17.9465 -15.209,-6.6794 -27.9239,-12.1443 -28.2556,-12.1443 -0.3317,0 -0.5373,60.6571 -0.4569,134.7933 0.081,74.1363 0.6211,133.5426 1.2014,132.014 0.5803,-1.5285 4.7304,-13.2013 9.2224,-25.9395 z m 733.3785,-240.5213 c -0.5024,-0.5025 -9.888,3.2903 -20.8567,8.4282 -10.9687,5.1379 -29.1823,13.2121 -40.4746,17.9424 l -20.5313,8.6008 5.3768,15.2287 c 2.9573,8.3758 7.3666,21.0653 9.7986,28.1986 2.4318,7.1333 7.8583,22.5583 12.0584,34.2774 4.2003,11.7191 11.2398,31.7297 15.6437,44.4678 4.4038,12.7383 12.3177,35.2502 17.5867,50.0265 5.269,14.7764 10.8295,30.6179 12.3566,35.2038 9.7021,29.1351 8.9591,37.6168 9.4797,-108.2238 0.2615,-73.2803 0.065,-133.6479 -0.4379,-134.1504 z m -174.6669,-7.3958 c -1.7832,-1.8392 -7.8282,-8.6453 -13.433,-15.1248 -12.2226,-14.1301 -23.644,-26.9964 -43.7001,-49.2285 -18.5394,-20.5508 -30.2027,-33.7141 -43.3829,-48.9626 -12.1603,-14.0687 -23.5232,-26.8712 -43.7002,-49.2374 -8.2398,-9.1337 -19.0788,-21.2446 -24.0868,-26.913 -5.008,-5.6687 -13.5061,-15.2543 -18.885,-21.3014 l -9.7798,-10.9948 -6.0807,6.4785 c -3.3445,3.5634 -13.4298,14.8164 -22.4118,25.007 -16.8088,19.0706 -19.7175,22.3544 -35.3994,39.9666 -5.0545,5.6767 -13.7758,15.6064 -19.3806,22.0662 -5.6048,6.4595 -11.4413,13.1531 -12.9699,14.8745 -1.5286,1.7212 -7.7818,8.8387 -13.8962,15.8168 -13.066,14.9116 -28.6406,32.4192 -31.4027,35.3001 -1.6092,1.6784 -13.219,14.7734 -26.9614,30.4109 -9.7966,11.1475 -27.2571,30.631 -29.3144,32.7106 -2.0425,2.0646 30.7522,2.475 197.7894,2.475 192.9766,0 200.1204,-0.1214 196.9955,-3.3437 z m -429.116,-39.4435 c 9.3239,-10.6054 19.5975,-22.2008 22.8302,-25.7676 3.2325,-3.5667 10.6119,-11.8404 16.3984,-18.3862 5.7863,-6.5457 11.3635,-12.7989 12.3935,-13.8962 1.7133,-1.8247 28.5774,-31.8513 42.3985,-47.3892 3.1727,-3.5666 7.0161,-8.0729 8.541,-10.0136 2.7151,-3.4557 2.6383,-3.4601 -3.7124,-0.2063 -3.5666,1.8275 -13.1549,7.2462 -21.3075,12.0417 -33.5087,19.7109 -50.7982,29.7178 -64.849,37.5335 -8.1525,4.5347 -30.2473,17.2242 -49.1,28.1986 -18.8525,10.9744 -35.5582,20.4833 -37.1238,21.1309 -1.5653,0.6476 -9.771,5.3017 -18.2344,10.3425 -17.1261,10.2005 -17.1417,10.5369 -0.7913,17.1524 4.5235,1.8302 19.633,8.4554 33.5766,14.7228 l 25.3522,11.3949 8.3378,-8.7877 c 4.5857,-4.8334 15.9663,-17.4649 25.2902,-28.0705 z m 505.7729,33.2882 c 4.97,-2.1672 14.8729,-6.6389 22.0063,-9.9372 7.1334,-3.2982 19.2232,-8.704 26.866,-12.0126 7.643,-3.3087 14.5826,-6.652 15.4216,-7.4297 1.6555,-1.5347 -0.3599,-2.8386 -31.8215,-20.5893 -30.2356,-17.0588 -28.7057,-16.1823 -96.6226,-55.3539 -34.1385,-19.6896 -66.6556,-38.3488 -72.2604,-41.4645 l -10.1906,-5.6654 5.3306,6.3994 c 2.9319,3.5197 8.7683,10.2157 12.9699,14.8799 8.3329,9.2507 29.9965,33.5993 34.6102,38.8997 17.4432,20.04 23.6171,27.0626 26.761,30.4402 2.0382,2.1894 9.5422,10.5868 16.6755,18.6606 14.48,16.3889 21.0791,23.7728 32.1709,35.9963 4.1613,4.5857 7.5881,8.9631 7.6153,9.7274 0.069,1.9342 0.326,1.8715 10.4678,-2.5509 z"
                 id="path1186-3"
                 inkscape:connector-curvature="0"
                 inkscape:export-filename=".\path1186-3.png"
                 inkscape:export-xdpi="106.29"
                 inkscape:export-ydpi="106.29" />
            </g>
          </g>
        </g>
      </g>
    </g>
  </g>
</svg>
